<svg id="Capa_1" data-name="Capa 1" xmlns="http://www.w3.org/2000/svg" xmlns:xlink="http://www.w3.org/1999/xlink" viewBox="0 0 114.17 89.82"><defs><style>.cls-1{fill:url(#Degradado_sin_nombre_31);}</style><linearGradient id="Degradado_sin_nombre_31" x1="0.92" y1="44.91" x2="113.25" y2="44.91" gradientUnits="userSpaceOnUse"><stop offset="0" stop-color="#211915"/><stop offset="0.55" stop-color="#211915"/></linearGradient></defs><title>Gatico</title><path class="cls-1" d="M112.19,1.76c-7.72,0-15.44,0-23.16,0-11.16,0-22.32,0-33.48.09-2.42,0-4.86.11-7.27.15a51.25,51.25,0,0,0-7.33.61,4.92,4.92,0,0,0-.72,0,34.69,34.69,0,0,0-15.8,6.73,28.46,28.46,0,0,0-8.87,11.86C13.36,26.79,11.39,32.41,9.32,38c-1.22,3.3-2.46,6.59-3.65,9.89C3.78,53.14,1.54,58.28,1,63.95.26,72.42,3.39,79.9,11.32,84.2A34.58,34.58,0,0,0,27.46,88c5.51.1,11,0,16.55-.07.44,0,.87.08,1.31.08,6,0,12,0,18,0a25.86,25.86,0,0,0,20.24-9,37.48,37.48,0,0,0,7.11-11.81c2.1-5.41,3.78-11,5.89-16.39s3.88-10.66,5.8-16c.46-1.27.46-1.28-.9-1.28h-20c-11,0-24.44-2.14-32.53,7.16a22,22,0,0,0-2.2,3,40.44,40.44,0,0,0-3.67,8.71c-.29.91-.06,1.06.8,1.05,3.8,0,7.6,0,11.4,0,4.28,0,8.56,0,12.84,0,.82,0,1,.2.67.94C68.21,56,67.63,57.55,66.9,59a9.37,9.37,0,0,1-8.67,5.57c-10.21.33-20.41.07-30.62.16-.91,0-1.11-.2-.76-1.06.58-1.43,1.08-2.89,1.6-4.35,2.08-5.89,4.24-11.76,6.34-17.64,1.73-4.84,4-9.4,8.37-12.4a10.58,10.58,0,0,1,1.08-.7,36.8,36.8,0,0,1,16.28-3.38c8.64-.07,17.28.05,25.92-.07a28.27,28.27,0,0,0,16.13-4.91c6.1-4.25,9.17-10.38,10.65-17.46C113.41,1.82,113,1.75,112.19,1.76Z"/></svg>